<?xml version="1.0" encoding="UTF-8" standalone="no"?>
<svg
   xmlns:dc="http://purl.org/dc/elements/1.1/"
   xmlns:cc="http://creativecommons.org/ns#"
   xmlns:rdf="http://www.w3.org/1999/02/22-rdf-syntax-ns#"
   xmlns:svg="http://www.w3.org/2000/svg"
   xmlns="http://www.w3.org/2000/svg"
   xmlns:sodipodi="http://sodipodi.sourceforge.net/DTD/sodipodi-0.dtd"
   xmlns:inkscape="http://www.inkscape.org/namespaces/inkscape"
   fill="#000000"
   height="24"
   viewBox="0 0 24 24"
   width="24"
   id="svg2"
   version="1.1"
   inkscape:version="0.91 r13725"
   sodipodi:docname="ic_mode_edit_black_24px.svg">
  <metadata
     id="metadata12">
    <rdf:RDF>
      <cc:Work
         rdf:about="">
        <dc:format>image/svg+xml</dc:format>
        <dc:type
           rdf:resource="http://purl.org/dc/dcmitype/StillImage" />
      </cc:Work>
    </rdf:RDF>
  </metadata>
  <defs
     id="defs10" />
  <sodipodi:namedview
     pagecolor="#ffffff"
     bordercolor="#666666"
     borderopacity="1"
     objecttolerance="10"
     gridtolerance="10"
     guidetolerance="10"
     inkscape:pageopacity="0"
     inkscape:pageshadow="2"
     inkscape:window-width="2012"
     inkscape:window-height="1131"
     id="namedview8"
     showgrid="false"
     inkscape:zoom="30.71875"
     inkscape:cx="15.388603"
     inkscape:cy="10.926405"
     inkscape:window-x="36"
     inkscape:window-y="21"
     inkscape:window-maximized="1"
     inkscape:current-layer="svg2" />
  <path
     d="M3 17.25V21h3.75L17.81 9.94l-3.75-3.75L3 17.25zM20.71 7.04c.39-.39.39-1.02 0-1.41l-2.34-2.34c-.39-.39-1.02-.39-1.41 0l-1.83 1.83 3.75 3.75 1.83-1.83z"
     id="path4" />
  <path
     d="M0 0h24v24H0z"
     fill="none"
     id="path6" />
  <path
     style="opacity:1;fill:#767676;fill-opacity:1;stroke:#ffffff;stroke-width:0;stroke-linecap:square;stroke-miterlimit:4;stroke-dasharray:none;stroke-dashoffset:0;stroke-opacity:1"
     d="m 3.0112868,19.114937 0,-1.860534 5.5219175,-5.521869 5.5219177,-5.5218702 1.867177,1.8670368 1.867178,1.8670367 -5.515319,5.5153667 -5.5153194,5.515367 -1.8737759,0 -1.8737759,0 0,-1.860534 z"
     id="path4140"
     inkscape:connector-curvature="0" />
  <path
     style="opacity:1;fill:#767676;fill-opacity:1;stroke:#ffffff;stroke-width:0;stroke-linecap:square;stroke-miterlimit:4;stroke-dasharray:none;stroke-dashoffset:0;stroke-opacity:1"
     d="m 3.0003419,19.126403 0,-1.872126 0.050647,-0.05053 c 0.027856,-0.02779 0.051526,-0.04965 0.052601,-0.04858 0.00107,0.0011 -0.019958,0.02381 -0.04674,0.05053 l -0.048695,0.04858 0,1.86041 0,1.860411 1.8759748,0 1.8759748,0 1.6005876,-1.600585 c 0.8803234,-0.880321 1.6005878,-1.597947 1.6005878,-1.594724 0,0.0032 -0.7229011,0.728759 -1.6064472,1.612303 l -1.6064469,1.606443 -1.8740217,0 -1.8740217,0 0,-1.872127 z"
     id="path4142"
     inkscape:connector-curvature="0" />
  <path
     style="opacity:1;fill:#767676;fill-opacity:1;stroke:#ffffff;stroke-width:0;stroke-linecap:square;stroke-miterlimit:4;stroke-dasharray:none;stroke-dashoffset:0;stroke-opacity:1"
     d="m 7.6348584,12.634286 3.1308576,-3.1308592 1.262696,0 1.262696,0 0,2.4677782 0,2.467777 -0.66309,0.663082 -0.66309,0.663082 -3.7304636,0 -3.7304636,0 3.1308576,-3.13086 z"
     id="path4144"
     inkscape:connector-curvature="0" />
  <path
     style="opacity:1;fill:#767676;fill-opacity:1;stroke:#ffffff;stroke-width:0;stroke-linecap:square;stroke-miterlimit:4;stroke-dasharray:none;stroke-dashoffset:0;stroke-opacity:1"
     d="M 7.6192334,12.634286 C 9.3412049,10.912313 10.752728,9.5034268 10.75595,9.5034268 c 0.0032,0 -1.4030264,1.4088862 -3.1249979,3.1308592 -1.7219716,1.721973 -3.1334942,3.13086 -3.1367169,3.13086 -0.00322,0 1.4030265,-1.408887 3.1249982,-3.13086 z"
     id="path4146"
     inkscape:connector-curvature="0" />
  <path
     style="opacity:1;fill:#767676;fill-opacity:1;stroke:#ffffff;stroke-width:0;stroke-linecap:square;stroke-miterlimit:4;stroke-dasharray:none;stroke-dashoffset:0;stroke-opacity:1"
     d="M 17.363743,10.374153 17.793424,9.9444519 15.924284,8.0776035 14.055143,6.210755 12.402338,7.8632333 c -0.909043,0.908863 -1.653813,1.6508486 -1.655044,1.6488569 -0.0012,-0.00199 0.74385,-0.7497077 1.655735,-1.6615912 l 1.657974,-1.6579699 1.873044,1.8730412 1.873044,1.8730412 -0.432608,0.4326215 c -0.237934,0.237941 -0.434366,0.432621 -0.436514,0.432621 -0.0021,0 0.18945,-0.193366 0.425774,-0.429701 z"
     id="path4148"
     inkscape:connector-curvature="0" />
  <path
     style="opacity:1;fill:#767676;fill-opacity:1;stroke:#ffffff;stroke-width:0;stroke-linecap:square;stroke-miterlimit:4;stroke-dasharray:none;stroke-dashoffset:0;stroke-opacity:1"
     d="m 16.820772,6.8077643 -1.687492,-1.6874959 0.289046,-0.2890666 0.289047,-0.2890666 1.399424,0 1.399424,0 0,1.9765625 c 0,1.0871094 -4.4e-4,1.9765625 -9.78e-4,1.9765625 -5.38e-4,0 -0.76035,-0.7593731 -1.688471,-1.6874959 z"
     id="path4150"
     inkscape:connector-curvature="0" />
  <path
     style="opacity:1;fill:#767676;fill-opacity:1;stroke:#ffffff;stroke-width:0;stroke-linecap:square;stroke-miterlimit:4;stroke-dasharray:none;stroke-dashoffset:0;stroke-opacity:1"
     d="m 18.698477,8.6819843 -0.179464,-0.1797114 0,-1.9803295 0,-1.9803295 -1.400367,0 -1.400367,0 0.64078,-0.6417944 c 0.352429,-0.3529869 0.673097,-0.6666375 0.712595,-0.6970013 0.08629,-0.066334 0.218493,-0.1318502 0.331457,-0.1642611 0.126259,-0.036226 0.338927,-0.041662 0.472491,-0.012078 0.113938,0.025237 0.250776,0.085037 0.357462,0.1562153 0.09826,0.065556 2.518754,2.4859945 2.584054,2.5839945 0.05723,0.085894 0.122253,0.2250053 0.150368,0.3217207 0.01679,0.057755 0.02074,0.1064257 0.02017,0.2485922 -6.41e-4,0.1600864 -0.0036,0.186165 -0.03104,0.2762136 -0.03501,0.1147955 -0.09634,0.2342965 -0.166281,0.3239877 -0.02689,0.034491 -0.468187,0.481612 -0.980649,0.9936017 l -0.93175,0.9308905 -0.179464,-0.1797114 z"
     id="path4152"
     inkscape:connector-curvature="0" />
  <path
     style="fill:#767676;stroke:#ffffff;stroke-opacity:1;stroke-width:0;stroke-miterlimit:4;stroke-dasharray:none;opacity:1;stroke-linecap:square;stroke-dashoffset:0;fill-opacity:1"
     d="m 18.699206,8.6798614 -0.17871,-0.1788484 0,-1.9814295 0,-1.9814295 -1.396867,0 -1.396866,0 0.251358,-0.2544007 c 0.273952,-0.2772672 0.871884,-0.8701803 1.006787,-0.9983362 0.09479,-0.090049 0.13568,-0.1200243 0.229064,-0.1679213 0.16465,-0.08445 0.280072,-0.1096798 0.483477,-0.1056823 0.10855,0.00213 0.152902,0.00798 0.230903,0.030448 0.08763,0.02524 0.2107,0.081386 0.284402,0.1297472 0.01914,0.012562 0.06281,0.050018 0.106959,0.091755 0.379445,0.3586915 2.083633,2.062916 2.422776,2.4228273 0.03543,0.037598 0.07183,0.079785 0.08089,0.09375 0.06339,0.097717 0.133116,0.2579647 0.152969,0.3515625 0.0061,0.028982 0.007,0.05406 0.007,0.1972656 0,0.1900644 -9.4e-4,0.198189 -0.03473,0.3000644 -0.0325,0.097984 -0.07059,0.1762509 -0.126691,0.2602701 -0.02334,0.034958 -0.04986,0.06563 -0.121588,0.1406249 -0.05046,0.052754 -0.481151,0.4857652 -0.957101,0.9622484 L 18.877917,8.8587098 18.699206,8.6798614 Z"
     id="path4154"
     inkscape:connector-curvature="0" />
  <path
     style="opacity:1;fill:#767676;fill-opacity:1;stroke:#ffffff;stroke-width:0;stroke-linecap:square;stroke-miterlimit:4;stroke-dasharray:none;stroke-dashoffset:0;stroke-opacity:1"
     d="m 18.511937,8.500068 c -6.64e-4,-0.00161 -3.26e-4,-0.8932617 7.52e-4,-1.9814453 l 0.002,-1.9785156 9.7e-4,1.9814453 c 5.34e-4,1.0897949 1.96e-4,1.9814453 -7.51e-4,1.9814453 -9.48e-4,0 -0.0023,-0.00132 -0.0029,-0.00293 z"
     id="path4156"
     inkscape:connector-curvature="0" />
  <path
     style="opacity:1;fill:#767676;fill-opacity:1;stroke:#ffffff;stroke-width:0;stroke-linecap:square;stroke-miterlimit:4;stroke-dasharray:none;stroke-dashoffset:0;stroke-opacity:1"
     d="m 18.699206,8.6798673 -0.17871,-0.1788543 0,-1.9814241 0,-1.9814241 -1.397259,-9.82e-4 -1.397259,-9.82e-4 0.432794,-0.4335937 c 0.419447,-0.4202231 0.755394,-0.7522525 0.85977,-0.8497453 0.0606,-0.056605 0.118779,-0.096704 0.199346,-0.1374025 0.103429,-0.052247 0.184603,-0.07985 0.279245,-0.094958 0.06261,-0.01 0.23241,-0.012358 0.302659,-0.00421 0.108717,0.012608 0.216008,0.04822 0.337448,0.1120042 0.09671,0.050794 0.108665,0.061118 0.403071,0.3479771 0.577554,0.5627505 2.01958,2.0109819 2.231966,2.2415703 0.04039,0.043857 0.05473,0.064242 0.08929,0.1269531 0.0519,0.094193 0.104224,0.2266014 0.116541,0.2949219 0.0039,0.021676 0.0053,0.072483 0.0052,0.1953125 -9.4e-5,0.1564443 -5.96e-4,0.1682803 -0.0087,0.2052969 -0.01859,0.084827 -0.0644,0.2015199 -0.110787,0.2822269 -0.04356,0.075785 -0.06925,0.1089516 -0.151643,0.1957273 -0.04403,0.04638 -0.474751,0.4794528 -0.957147,0.962384 L 18.877917,8.8587212 18.699206,8.6798673 Z"
     id="path4158"
     inkscape:connector-curvature="0" />
  <path
     style="opacity:1;fill:#767676;fill-opacity:1;stroke:#ffffff;stroke-width:0;stroke-linecap:square;stroke-miterlimit:4;stroke-dasharray:none;stroke-dashoffset:0;stroke-opacity:1"
     d="m 18.515624,7.1172555 -9.65e-4,-1.3857422 -0.002,0.9902344 c -0.0017,0.8311001 -0.002,0.7353685 -0.002,-0.5957031 -9e-6,-0.8722656 8.83e-4,-1.4110352 0.002,-1.1972656 l 0.002,0.3886718 0.002,-0.3886718 c 0.0011,-0.2137696 0.0024,0.5029785 0.0029,1.5927734 5.27e-4,1.0897949 7.9e-5,1.9814453 -9.96e-4,1.9814453 -0.0011,0 -0.0024,-0.623584 -0.0029,-1.3857422 z"
     id="path4160"
     inkscape:connector-curvature="0" />
  <path
     style="opacity:1;fill:#767676;fill-opacity:1;stroke:#ffffff;stroke-width:0;stroke-linecap:square;stroke-miterlimit:4;stroke-dasharray:none;stroke-dashoffset:0;stroke-opacity:1"
     d="m 18.518396,4.7276071 c 0,-0.103125 5.05e-4,-0.1447515 0.0011,-0.092503 6.16e-4,0.052248 6.15e-4,0.1366232 -1e-6,0.1875 -6.17e-4,0.050877 -0.0011,0.00813 -0.0011,-0.094997 z"
     id="path4162"
     inkscape:connector-curvature="0" />
  <path
     style="opacity:1;fill:#767676;fill-opacity:1;stroke:#ffffff;stroke-width:0;stroke-linecap:square;stroke-miterlimit:4;stroke-dasharray:none;stroke-dashoffset:0;stroke-opacity:1"
     d="m 18.699189,8.6797387 -0.178693,-0.1787257 0,-1.9814241 0,-1.9814241 -1.397461,-9.82e-4 -1.397461,-9.82e-4 0.320312,-0.3216639 c 0.357177,-0.358684 0.845529,-0.8418972 0.953125,-0.943095 0.08127,-0.076436 0.129627,-0.1108984 0.218877,-0.1559826 0.105429,-0.053257 0.186321,-0.080593 0.283076,-0.09566 0.06597,-0.010273 0.27247,-0.010155 0.333985,1.908e-4 0.08736,0.014694 0.183929,0.048306 0.284008,0.098858 0.104862,0.052968 0.116454,0.062196 0.298023,0.2372313 0.387516,0.3735724 1.640663,1.6249189 2.124699,2.1216458 0.266878,0.2738758 0.277611,0.2863442 0.327718,0.3807412 0.04434,0.083527 0.08962,0.1964082 0.104984,0.2617187 0.0068,0.028943 0.0081,0.051496 0.0098,0.1757813 0.0024,0.1688908 -9.01e-4,0.2158819 -0.01993,0.2852865 -0.04025,0.1467889 -0.119673,0.2957915 -0.209193,0.3924478 -0.05943,0.064166 -0.874799,0.8844926 -1.40843,1.4169911 L 18.877883,8.8584641 18.699189,8.6797387 Z"
     id="path4164"
     inkscape:connector-curvature="0" />
  <path
     style="opacity:1;fill:#767676;fill-opacity:1;stroke:#ffffff;stroke-width:0;stroke-linecap:square;stroke-miterlimit:4;stroke-dasharray:none;stroke-dashoffset:0;stroke-opacity:1"
     d="m 18.698876,8.6794251 -0.17838,-0.1784121 0,-1.9814295 0,-1.9814295 -1.396485,0 c -0.768066,0 -1.396484,-0.00145 -1.396484,-0.00322 0,-0.00823 1.189905,-1.1894937 1.302734,-1.2932725 0.05747,-0.05286 0.111809,-0.08877 0.203179,-0.1342689 0.09255,-0.046086 0.175372,-0.073533 0.264385,-0.087614 0.06495,-0.010275 0.275517,-0.010149 0.337124,2.005e-4 0.08789,0.014766 0.183183,0.047938 0.284008,0.098866 0.110354,0.055742 0.123351,0.066609 0.389663,0.325815 0.441459,0.4296783 1.633379,1.6216434 2.052566,2.052643 0.25021,0.2572618 0.260208,0.2690825 0.312732,0.3697394 0.0446,0.085464 0.08731,0.1936088 0.101866,0.2579338 0.0084,0.037114 0.01272,0.2953048 0.0061,0.3633285 -0.0111,0.113654 -0.07243,0.2695414 -0.155211,0.3944978 -0.04411,0.066586 -0.08135,0.1055436 -0.57178,0.5982362 -0.222364,0.2233875 -0.407621,0.4098011 -0.411683,0.4142527 -0.0041,0.00445 -0.223058,0.2228445 -0.486659,0.485318 L 18.877278,8.8578337 18.698898,8.679422 Z"
     id="path4166"
     inkscape:connector-curvature="0" />
  <path
     style="opacity:1;fill:#767676;fill-opacity:1;stroke:#ffffff;stroke-width:0;stroke-linecap:square;stroke-miterlimit:4;stroke-dasharray:none;stroke-dashoffset:0;stroke-opacity:1"
     d="m 18.514426,4.6651071 c 1e-6,-0.06875 5.33e-4,-0.096325 0.0012,-0.061277 6.48e-4,0.035047 6.47e-4,0.091297 -3e-6,0.125 -6.5e-4,0.033703 -0.0012,0.00503 -0.0012,-0.063723 z"
     id="path4168"
     inkscape:connector-curvature="0" />
  <path
     style="opacity:1;fill:#767676;fill-opacity:1;stroke:#ffffff;stroke-width:0;stroke-linecap:square;stroke-miterlimit:4;stroke-dasharray:none;stroke-dashoffset:0;stroke-opacity:1"
     d="m 18.513854,4.616279 c 0,-0.011816 7.32e-4,-0.01665 0.0016,-0.010742 8.95e-4,0.00591 8.95e-4,0.015576 0,0.021484 -8.95e-4,0.00591 -0.0016,0.00107 -0.0016,-0.010742 z"
     id="path4170"
     inkscape:connector-curvature="0" />
  <path
     style="opacity:1;fill:#767676;fill-opacity:1;stroke:#ffffff;stroke-width:0;stroke-linecap:square;stroke-miterlimit:4;stroke-dasharray:none;stroke-dashoffset:0;stroke-opacity:1"
     d="m 18.509987,4.7217477 c -3.1e-5,-0.1341889 7.56e-4,-0.1663336 0.003,-0.1230469 0.0017,0.032227 0.0017,0.1139649 4.1e-5,0.1816407 l -0.003,0.1230468 -4.2e-5,-0.1816406 z"
     id="path4172"
     inkscape:connector-curvature="0" />
  <path
     style="opacity:1;fill:#767676;fill-opacity:1;stroke:#ffffff;stroke-width:0;stroke-linecap:square;stroke-miterlimit:4;stroke-dasharray:none;stroke-dashoffset:0;stroke-opacity:1"
     d="m 18.515051,4.7068396 c -0.0017,-0.035055 -0.0023,-0.064603 -0.0012,-0.065663 0.0025,-0.00253 0.008,0.1069575 0.0059,0.1196336 -8.57e-4,0.00537 -0.003,-0.018916 -0.0047,-0.053971 z"
     id="path4174"
     inkscape:connector-curvature="0" />
  <path
     style="opacity:1;fill:#767676;fill-opacity:1;stroke:#ffffff;stroke-width:0;stroke-linecap:square;stroke-miterlimit:4;stroke-dasharray:none;stroke-dashoffset:0;stroke-opacity:1"
     d="m 18.514353,4.866279 c 0,-0.04834 5.61e-4,-0.068115 0.0012,-0.043945 6.85e-4,0.02417 6.85e-4,0.063721 0,0.087891 -6.85e-4,0.02417 -0.0012,0.00439 -0.0012,-0.043945 z"
     id="path4176"
     inkscape:connector-curvature="0" />
  <path
     style="opacity:1;fill:#767676;fill-opacity:1;stroke:#ffffff;stroke-width:0;stroke-linecap:square;stroke-miterlimit:4;stroke-dasharray:none;stroke-dashoffset:0;stroke-opacity:1"
     d="m 18.516315,4.9160837 c -2.62e-4,-0.00839 -4.29e-4,-0.00843 -0.0036,-9.766e-4 -0.0023,0.00544 -0.0034,-2.014e-4 -0.0036,-0.018555 -1.51e-4,-0.014502 0.0012,-0.026367 0.003,-0.026367 0.0018,0 0.0024,-0.00967 0.0015,-0.021484 -0.0012,-0.014354 -3.24e-4,-0.021484 0.0026,-0.021484 0.003,0 0.0044,0.015293 0.0044,0.048828 0,0.026855 -8.79e-4,0.048828 -0.002,0.048828 -0.0011,0 -0.0021,-0.00396 -0.0022,-0.00879 z"
     id="path4178"
     inkscape:connector-curvature="0" />
  <path
     style="opacity:1;fill:#767676;fill-opacity:1;stroke:#ffffff;stroke-width:0;stroke-linecap:square;stroke-miterlimit:4;stroke-dasharray:none;stroke-dashoffset:0;stroke-opacity:1"
     d="M 18.699143,8.6796919 18.520496,8.501013 18.519692,6.7119664 c -4.41e-4,-0.9839757 -0.0017,-1.7732265 -0.0028,-1.7538906 l -0.002,0.035156 -0.0023,-0.044922 c -0.0012,-0.024707 -0.0026,0.7627927 -0.003,1.7499995 l -7.79e-4,1.7949212 -1.686518,-1.6865181 -1.686519,-1.6865182 0.289048,-0.2890672 0.289047,-0.2890672 1.397471,0 1.397471,0 3.83e-4,0.1748047 c 3.4e-4,0.1555468 9.5e-4,0.1720075 0.0055,0.1494141 0.0037,-0.01824 0.0052,-0.06802 0.0055,-0.1767578 l 3.07e-4,-0.1513672 -1.396464,0 c -0.768055,0 -1.396464,-0.00145 -1.396464,-0.00322 0,-0.00783 1.186822,-1.186505 1.30045,-1.2915201 0.0577,-0.053327 0.110311,-0.088671 0.195395,-0.1312654 0.09599,-0.048053 0.171998,-0.074436 0.2584,-0.08969 0.06078,-0.01073 0.232431,-0.01527 0.306345,-0.0081 0.106773,0.010353 0.206515,0.041926 0.333047,0.105426 0.07441,0.037343 0.115403,0.065702 0.176675,0.1222257 0.322297,0.2973192 2.337326,2.315111 2.49569,2.4991118 0.05226,0.060721 0.118461,0.1890865 0.160723,0.311651 0.02858,0.082901 0.02913,0.088108 0.02913,0.2763961 0,0.1835863 -5.71e-4,0.1900642 -0.0237,0.2686877 -0.0292,0.099249 -0.07591,0.1994475 -0.132769,0.2848186 -0.02406,0.036123 -0.05028,0.067924 -0.09649,0.1170394 -0.110199,0.1171281 -1.039893,1.0505902 -1.700445,1.7073359 L 18.877789,8.8583704 18.699143,8.6796919 Z"
     id="path4180"
     inkscape:connector-curvature="0" />
  <path
     style="opacity:1;fill:#767676;fill-opacity:1;stroke:#ffffff;stroke-width:0;stroke-linecap:square;stroke-miterlimit:4;stroke-dasharray:none;stroke-dashoffset:0;stroke-opacity:1"
     d="m 18.699143,8.6796919 -0.178647,-0.1786789 0,-1.7934512 c 0,-1.5894134 -6.67e-4,-1.7940045 -0.0059,-1.7983141 -0.0052,-0.00432 -0.0059,0.1949604 -0.0059,1.7895602 l 0,1.794423 -1.686518,-1.6865181 -1.686519,-1.6865182 0.289048,-0.2890672 0.289047,-0.2890672 1.397471,0 1.397471,0 3.83e-4,0.1748047 c 3.4e-4,0.1555468 9.5e-4,0.1720075 0.0055,0.1494141 0.0037,-0.01824 0.0052,-0.06802 0.0055,-0.1767578 l 3.07e-4,-0.1513672 -1.396464,0 c -0.768055,0 -1.396464,-0.00145 -1.396464,-0.00322 0,-0.00783 1.186822,-1.186505 1.30045,-1.2915201 0.0577,-0.053327 0.110311,-0.088671 0.195395,-0.1312654 0.09599,-0.048053 0.171998,-0.074436 0.2584,-0.08969 0.06078,-0.01073 0.232431,-0.01527 0.306345,-0.0081 0.106773,0.010353 0.206515,0.041926 0.333047,0.105426 0.07441,0.037343 0.115403,0.065702 0.176675,0.1222257 0.322297,0.2973192 2.337326,2.315111 2.49569,2.4991118 0.05226,0.060721 0.118461,0.1890865 0.160723,0.311651 0.02858,0.082901 0.02913,0.088108 0.02913,0.2763961 0,0.1835863 -5.71e-4,0.1900642 -0.0237,0.2686877 -0.0292,0.099249 -0.07591,0.1994475 -0.132769,0.2848186 -0.02406,0.036123 -0.05028,0.067924 -0.09649,0.1170394 -0.110199,0.1171281 -1.039893,1.0505902 -1.700445,1.7073359 l -0.15212,0.1513197 -0.178646,-0.1786785 z"
     id="path4182"
     inkscape:connector-curvature="0" />
  <path
     style="opacity:1;fill:#767676;fill-opacity:1;stroke:#ffffff;stroke-width:0;stroke-linecap:square;stroke-miterlimit:4;stroke-dasharray:none;stroke-dashoffset:0;stroke-opacity:1"
     d="m 18.699143,8.6796919 -0.178647,-0.1786789 0,-1.7934512 c 0,-1.5894134 -6.67e-4,-1.7940045 -0.0059,-1.7983141 -0.0052,-0.00432 -0.0059,0.1949604 -0.0059,1.7895602 l 0,1.794423 -1.686518,-1.6865181 -1.686519,-1.6865182 0.289048,-0.2890672 0.289047,-0.2890672 1.397471,0 1.397471,0 3.83e-4,0.1748047 c 3.4e-4,0.1555468 9.5e-4,0.1720075 0.0055,0.1494141 0.0037,-0.01824 0.0052,-0.06802 0.0055,-0.1767578 l 3.07e-4,-0.1513672 -1.396464,0 c -0.768055,0 -1.396464,-0.00145 -1.396464,-0.00322 0,-0.00783 1.186822,-1.186505 1.30045,-1.2915201 0.0577,-0.053327 0.110311,-0.088671 0.195395,-0.1312654 0.09599,-0.048053 0.171998,-0.074436 0.2584,-0.08969 0.06078,-0.01073 0.232431,-0.01527 0.306345,-0.0081 0.106773,0.010353 0.206515,0.041926 0.333047,0.105426 0.07441,0.037343 0.115403,0.065702 0.176675,0.1222257 0.322297,0.2973192 2.337326,2.315111 2.49569,2.4991118 0.05226,0.060721 0.118461,0.1890865 0.160723,0.311651 0.02858,0.082901 0.02913,0.088108 0.02913,0.2763961 0,0.1835863 -5.71e-4,0.1900642 -0.0237,0.2686877 -0.0292,0.099249 -0.07591,0.1994475 -0.132769,0.2848186 -0.02406,0.036123 -0.05028,0.067924 -0.09649,0.1170394 -0.110199,0.1171281 -1.039893,1.0505902 -1.700445,1.7073359 l -0.15212,0.1513197 -0.178646,-0.1786785 z"
     id="path4184"
     inkscape:connector-curvature="0" />
  <path
     style="opacity:1;fill:#767676;fill-opacity:1;stroke:#ffffff;stroke-width:0;stroke-linecap:square;stroke-miterlimit:4;stroke-dasharray:none;stroke-dashoffset:0;stroke-opacity:1"
     d="m 3.0378396,19.100989 0,-1.863552 5.5098154,-5.517933 5.509815,-5.5179334 1.847255,1.8558587 c 1.01599,1.0207222 1.847255,1.8703825 1.847255,1.8881338 0,0.017751 -2.472041,2.5042829 -5.493424,5.5256269 l -5.4934231,5.493351 -1.8636467,0 -1.8636466,0 0,-1.863552 z"
     id="path4157"
     inkscape:connector-curvature="0" />
  <path
     style="opacity:1;fill:#767676;fill-opacity:1;stroke:#ffffff;stroke-width:0;stroke-linecap:square;stroke-miterlimit:4;stroke-dasharray:none;stroke-dashoffset:0;stroke-opacity:1"
     d="M 17.003145,6.982328 15.131431,5.1099828 16.108673,4.1353913 c 1.114619,-1.1115953 1.131041,-1.1233986 1.561923,-1.1225958 0.431107,8.032e-4 0.418203,-0.00912 1.859384,1.429403 1.456417,1.4537271 1.46003,1.4584051 1.459463,1.8895858 -5.54e-4,0.421562 -0.01928,0.4476074 -1.117503,1.5544252 -0.528519,0.5326551 -0.969074,0.9684639 -0.979012,0.9684639 -0.0099,0 -0.860339,-0.8425555 -1.889783,-1.8723454 z"
     id="path4159"
     inkscape:connector-curvature="0" />
</svg>
