<?xml version="1.0" encoding="UTF-8" standalone="no"?>
<svg
   xmlns:dc="http://purl.org/dc/elements/1.1/"
   xmlns:cc="http://creativecommons.org/ns#"
   xmlns:rdf="http://www.w3.org/1999/02/22-rdf-syntax-ns#"
   xmlns:svg="http://www.w3.org/2000/svg"
   xmlns="http://www.w3.org/2000/svg"
   xmlns:sodipodi="http://sodipodi.sourceforge.net/DTD/sodipodi-0.dtd"
   xmlns:inkscape="http://www.inkscape.org/namespaces/inkscape"
   enable-background="new 0 0 128 128"
   height="40"
   id="Layer_1"
   version="1.1"
   viewBox="0 0 40 40"
   width="40"
   xml:space="preserve"
   inkscape:version="0.91 r13725"
   sodipodi:docname="google-plus-icon.svg"><metadata
     id="metadata19"><rdf:RDF><cc:Work
         rdf:about=""><dc:format>image/svg+xml</dc:format><dc:type
           rdf:resource="http://purl.org/dc/dcmitype/StillImage" /><dc:title></dc:title></cc:Work></rdf:RDF></metadata><defs
     id="defs17" /><sodipodi:namedview
     pagecolor="#ffffff"
     bordercolor="#666666"
     borderopacity="1"
     objecttolerance="10"
     gridtolerance="10"
     guidetolerance="10"
     inkscape:pageopacity="0"
     inkscape:pageshadow="2"
     inkscape:window-width="1920"
     inkscape:window-height="1018"
     id="namedview15"
     showgrid="false"
     fit-margin-top="0"
     fit-margin-left="0"
     fit-margin-right="0"
     fit-margin-bottom="0"
     inkscape:zoom="1.84375"
     inkscape:cx="64"
     inkscape:cy="-72.40678"
     inkscape:window-x="1016"
     inkscape:window-y="-8"
     inkscape:window-maximized="1"
     inkscape:current-layer="Layer_1" /><g
     id="g3"
     transform="scale(0.3125,0.3125)"><circle
       cx="64"
       cy="64"
       r="64"
       id="circle5"
       style="fill:#d95032" /><g
       id="g7"><g
         id="g9"><path
           d="m 49.424,97.875 c -19.018,0 -34.491,-15.193 -34.491,-33.874 0,-18.68 15.473,-33.875 34.491,-33.875 8.318,0 16.354,2.952 22.624,8.309 l -8.771,9.899 c -3.838,-3.279 -8.758,-5.086 -13.853,-5.086 -11.652,0 -21.13,9.31 -21.13,20.752 0,11.441 9.479,20.75 21.13,20.75 9.858,0 16.311,-4.723 18.407,-13.197 l -18.244,0 0,-13.121 32.347,0 0,6.562 c 0,19.665 -13.065,32.881 -32.51,32.881 z"
           id="path11"
           inkscape:connector-curvature="0"
           style="fill:#ffffff" /></g><polygon
         points="89.934,58.438 89.934,66.438 99.934,66.438 99.934,76.438 107.934,76.438 107.934,66.438 117.934,66.438 117.934,58.438 107.934,58.438 107.934,48.438 99.934,48.438 99.934,58.438 "
         id="polygon13"
         style="fill:#ffffff" /></g></g></svg>