<?xml version="1.0" encoding="UTF-8" standalone="no"?>
<svg
   xmlns:dc="http://purl.org/dc/elements/1.1/"
   xmlns:cc="http://creativecommons.org/ns#"
   xmlns:rdf="http://www.w3.org/1999/02/22-rdf-syntax-ns#"
   xmlns:svg="http://www.w3.org/2000/svg"
   xmlns="http://www.w3.org/2000/svg"
   xmlns:sodipodi="http://sodipodi.sourceforge.net/DTD/sodipodi-0.dtd"
   xmlns:inkscape="http://www.inkscape.org/namespaces/inkscape"
   fill="#000000"
   height="24"
   viewBox="0 0 24 24"
   width="24"
   version="1.1"
   id="svg5654"
   sodipodi:docname="ic_contact_phone_black_24px.svg"
   inkscape:version="0.92.1 r15371">
  <metadata
     id="metadata5660">
    <rdf:RDF>
      <cc:Work
         rdf:about="">
        <dc:format>image/svg+xml</dc:format>
        <dc:type
           rdf:resource="http://purl.org/dc/dcmitype/StillImage" />
      </cc:Work>
    </rdf:RDF>
  </metadata>
  <defs
     id="defs5658" />
  <sodipodi:namedview
     pagecolor="#ffffff"
     bordercolor="#666666"
     borderopacity="1"
     objecttolerance="10"
     gridtolerance="10"
     guidetolerance="10"
     inkscape:pageopacity="0"
     inkscape:pageshadow="2"
     inkscape:window-width="1680"
     inkscape:window-height="987"
     id="namedview5656"
     showgrid="false"
     inkscape:zoom="9.8333333"
     inkscape:cx="12"
     inkscape:cy="12"
     inkscape:window-x="-8"
     inkscape:window-y="-8"
     inkscape:window-maximized="1"
     inkscape:current-layer="svg5654" />
  <path
     d="M0 0h24v24H0z"
     fill="none"
     id="path5650" />
  <path
     d="M22 3H2C.9 3 0 3.9 0 5v14c0 1.1.9 2 2 2h20c1.1 0 1.99-.9 1.99-2L24 5c0-1.1-.9-2-2-2zM8 6c1.66 0 3 1.34 3 3s-1.34 3-3 3-3-1.34-3-3 1.34-3 3-3zm6 12H2v-1c0-2 4-3.1 6-3.1s6 1.1 6 3.1v1zm3.85-4h1.64L21 16l-1.99 1.99c-1.31-.98-2.28-2.38-2.73-3.99-.18-.64-.28-1.31-.28-2s.1-1.36.28-2c.45-1.62 1.42-3.01 2.73-3.99L21 8l-1.51 2h-1.64c-.22.63-.35 1.3-.35 2s.13 1.37.35 2z"
     id="path5652"
     style="fill:#5c5c5c;fill-opacity:1" />
</svg>
