<?xml version="1.0" encoding="UTF-8" standalone="no"?>
<svg
   xmlns:dc="http://purl.org/dc/elements/1.1/"
   xmlns:cc="http://creativecommons.org/ns#"
   xmlns:rdf="http://www.w3.org/1999/02/22-rdf-syntax-ns#"
   xmlns:svg="http://www.w3.org/2000/svg"
   xmlns="http://www.w3.org/2000/svg"
   xmlns:sodipodi="http://sodipodi.sourceforge.net/DTD/sodipodi-0.dtd"
   xmlns:inkscape="http://www.inkscape.org/namespaces/inkscape"
   fill="#000000"
   height="24"
   viewBox="0 0 24 24"
   width="24"
   version="1.1"
   id="svg6"
   sodipodi:docname="ic_content_reservations.svg"
   inkscape:version="0.92.1 r15371">
  <metadata
     id="metadata12">
    <rdf:RDF>
      <cc:Work
         rdf:about="">
        <dc:format>image/svg+xml</dc:format>
        <dc:type
           rdf:resource="http://purl.org/dc/dcmitype/StillImage" />
        <dc:title></dc:title>
      </cc:Work>
    </rdf:RDF>
  </metadata>
  <defs
     id="defs10" />
  <sodipodi:namedview
     pagecolor="#ffffff"
     bordercolor="#666666"
     borderopacity="1"
     objecttolerance="10"
     gridtolerance="10"
     guidetolerance="10"
     inkscape:pageopacity="0"
     inkscape:pageshadow="2"
     inkscape:window-width="1680"
     inkscape:window-height="987"
     id="namedview8"
     showgrid="false"
     inkscape:zoom="9.8333333"
     inkscape:cx="12"
     inkscape:cy="12"
     inkscape:window-x="-8"
     inkscape:window-y="-8"
     inkscape:window-maximized="1"
     inkscape:current-layer="svg6" />
  <path
     d="M 19,2.1664099 H 14.82 C 14.4,0.90989214 13.3,0 12,0 10.7,0 9.6,0.90989214 9.18,2.1664099 H 5 c -1.1,0 -2,0.9748844 -2,2.1664098 V 21.664099 c 0,1.191525 0.9,2.166409 2,2.166409 h 14 c 1.1,0 2,-0.974884 2,-2.166409 V 4.3328197 C 21,3.1412943 20.1,2.1664099 19,2.1664099 Z m -7,0 c 0.55,0 1,0.4874422 1,1.0832049 0,0.5957627 -0.45,1.0832049 -1,1.0832049 -0.55,0 -1,-0.4874422 -1,-1.0832049 0,-0.5957627 0.45,-1.0832049 1,-1.0832049 z M 19,21.664099 H 5 V 4.3328197 H 7 V 7.5824345 H 17 V 4.3328197 h 2 z"
     id="path2"
     style="fill:#5c5c5c;fill-opacity:1;stroke-width:1.04077137"
     inkscape:connector-curvature="0" />
  <path
     d="M0 0h24v24H0z"
     fill="none"
     id="path4" />
  <path
     inkscape:connector-curvature="0"
     d="m 13.488116,10.34657 c 0.68376,0 1.2432,-0.5594396 1.2432,-1.2431996 0,-0.683761 -0.55944,-1.243201 -1.2432,-1.243201 -0.683761,0 -1.243201,0.55944 -1.243201,1.243201 0,0.68376 0.55944,1.2431996 1.243201,1.2431996 z m -2.237761,8.640245 0.6216,-2.735042 1.30536,1.243201 v 3.729602 h 1.243201 v -4.662003 l -1.305361,-1.2432 0.372961,-1.864801 c 0.80808,0.9324 2.05128,1.554001 3.418801,1.554001 v -1.243201 c -1.181041,0 -2.175601,-0.6216 -2.672881,-1.49184 l -0.6216,-0.994561 c -0.24864,-0.37296 -0.621601,-0.6216 -1.056721,-0.6216 -0.18648,0 -0.3108,0.06216 -0.49728,0.06216 l -3.2323212,1.367521 v 2.921522 h 1.2432002 v -2.113442 l 1.118881,-0.43512 -0.994561,5.034963 -3.0458411,-0.621601 -0.2486401,1.243201 z"
     id="path4487"
     style="fill:#5c5c5c;fill-opacity:1;stroke-width:0.62160027" />
</svg>
