<?xml version="1.0" encoding="utf-8"?>
<!-- Generator: Adobe Illustrator 15.1.0, SVG Export Plug-In  -->
<!DOCTYPE svg PUBLIC "-//W3C//DTD SVG 1.1//EN" "http://www.w3.org/Graphics/SVG/1.1/DTD/svg11.dtd" [
	<!ENTITY ns_flows "http://ns.adobe.com/Flows/1.0/">
]>
<svg version="1.1"
	 xmlns="http://www.w3.org/2000/svg" xmlns:xlink="http://www.w3.org/1999/xlink" xmlns:a="http://ns.adobe.com/AdobeSVGViewerExtensions/3.0/"
	 x="0px" y="0px" width="250px" height="200px" viewBox="0 0 250 200" enable-background="new 0 0 250 200" xml:space="preserve">
<defs>
</defs>
<g>
	<g>
		<circle fill="#676767" cx="202.4" cy="16.805" r="16.805"/>
		<circle fill="#676767" cx="134.995" cy="38.78" r="7.017"/>
		<circle fill="#676767" cx="174.33" cy="126.13" r="16.805"/>
		<g>
			<path fill="#676767" d="M178.947,166.02H7.203c-3.978,0-7.203-3.225-7.203-7.202s3.225-7.202,7.203-7.202h171.744
				c3.978,0,7.203,3.225,7.203,7.202S182.924,166.02,178.947,166.02z"/>
		</g>
		<path fill="#676767" d="M134.995,15.987c-12.588,0-22.793,10.206-22.793,22.793c0,12.588,10.206,22.793,22.793,22.793
			c12.588,0,22.794-10.205,22.794-22.793C157.789,26.192,147.583,15.987,134.995,15.987z M134.995,51.048
			c-6.774,0-12.267-5.493-12.267-12.268s5.493-12.267,12.267-12.267c6.775,0,12.268,5.492,12.268,12.267
			S141.77,51.048,134.995,51.048z"/>
		<path fill="#676767" d="M142.751,108.461V64.892c-2.459,0.729-5.061,1.127-7.756,1.127s-5.297-0.397-7.756-1.127v43.7
			l-45.983,1.449l-9.622-22.514c-1.301-3.042-4.102-5.18-7.379-5.63c-3.278-0.451-6.551,0.853-8.624,3.432l-34.718,43.213
			c-3.258,4.055-2.612,9.983,1.443,13.241c4.056,3.258,9.984,2.611,13.241-1.443l24.885-30.974l12.297,28.776
			c0.988,2.31,3.306,5.901,7.554,5.901l60.164-1.108c5.146,0,9.318-4.173,9.318-9.318v-16.124
			C149.815,113.126,146.806,109.471,142.751,108.461z"/>
		<path fill="#676767" d="M231.021,42.014c-1.504-4.922-6.713-7.692-11.634-6.189l-21.654,7.119
			c-3.691,1.128-6.172,4.341-6.548,7.953c-0.06,0.57,5.773-1.206,11.981-3.105l-19.881,11.659l-22.462-12.018
			c-1.839,5.491-5.377,10.199-9.993,13.504l28.722,15.365c1.227,0.656,2.574,0.983,3.92,0.983c1.454,0,2.908-0.381,4.204-1.142
			l27.896-16.36l-17.116,17.728l9.476,31.445l-14.274,35.648c-0.583,1.458-0.793,3.039-0.61,4.599l4.986,42.475
			c0.563,4.793,4.631,8.321,9.342,8.321c0.366,0,0.737-0.021,1.11-0.065c5.166-0.606,8.862-5.286,8.255-10.452l-4.707-40.097
			l15.111-37.74l4.434-0.321v79.256c0,5.202,4.217,9.418,9.418,9.418c5.201,0,9.417-4.216,9.417-9.418V101.2
			c0-0.983-0.156-1.948-0.451-2.866C249.687,97.477,231.021,42.014,231.021,42.014z"/>
	</g>
</g>
</svg>
