<?xml version="1.0" encoding="UTF-8" standalone="no"?>
<svg
   xmlns:dc="http://purl.org/dc/elements/1.1/"
   xmlns:cc="http://creativecommons.org/ns#"
   xmlns:rdf="http://www.w3.org/1999/02/22-rdf-syntax-ns#"
   xmlns:svg="http://www.w3.org/2000/svg"
   xmlns="http://www.w3.org/2000/svg"
   xmlns:sodipodi="http://sodipodi.sourceforge.net/DTD/sodipodi-0.dtd"
   xmlns:inkscape="http://www.inkscape.org/namespaces/inkscape"
   fill="#000000"
   height="24"
   viewBox="0 0 24 24"
   width="24"
   version="1.1"
   id="svg4487"
   sodipodi:docname="ic_exercices_table.svg"
   inkscape:version="0.92.1 r15371">
  <metadata
     id="metadata4493">
    <rdf:RDF>
      <cc:Work
         rdf:about="">
        <dc:format>image/svg+xml</dc:format>
        <dc:type
           rdf:resource="http://purl.org/dc/dcmitype/StillImage" />
        <dc:title></dc:title>
      </cc:Work>
    </rdf:RDF>
  </metadata>
  <defs
     id="defs4491" />
  <sodipodi:namedview
     pagecolor="#ffffff"
     bordercolor="#666666"
     borderopacity="1"
     objecttolerance="10"
     gridtolerance="10"
     guidetolerance="10"
     inkscape:pageopacity="0"
     inkscape:pageshadow="2"
     inkscape:window-width="1680"
     inkscape:window-height="987"
     id="namedview4489"
     showgrid="false"
     inkscape:zoom="24.902651"
     inkscape:cx="6.928934"
     inkscape:cy="10.300328"
     inkscape:window-x="-8"
     inkscape:window-y="-8"
     inkscape:window-maximized="1"
     inkscape:current-layer="svg4487" />
  <g
     id="g22"
     transform="matrix(0.09007998,0,0,0.09007998,0.7003595,2.5981117)">
    <g
       id="g20">
      <circle
         style="fill:#676767"
         cx="202.39999"
         cy="16.805"
         r="16.805"
         id="circle4" />
      <circle
         style="fill:#676767"
         cx="134.995"
         cy="38.779999"
         r="7.0170002"
         id="circle6" />
      <circle
         style="fill:#676767"
         cx="174.33"
         cy="126.13"
         r="16.805"
         id="circle8" />
      <g
         id="g12">
        <path
           style="fill:#676767"
           inkscape:connector-curvature="0"
           d="M 178.947,166.02 H 7.203 C 3.225,166.02 0,162.795 0,158.818 c 0,-3.977 3.225,-7.202 7.203,-7.202 h 171.744 c 3.978,0 7.203,3.225 7.203,7.202 0,3.977 -3.226,7.202 -7.203,7.202 z"
           id="path10" />
      </g>
      <path
         style="fill:#676767"
         inkscape:connector-curvature="0"
         d="m 134.995,15.987 c -12.588,0 -22.793,10.206 -22.793,22.793 0,12.588 10.206,22.793 22.793,22.793 12.588,0 22.794,-10.205 22.794,-22.793 0,-12.588 -10.206,-22.793 -22.794,-22.793 z m 0,35.061 c -6.774,0 -12.267,-5.493 -12.267,-12.268 0,-6.775 5.493,-12.267 12.267,-12.267 6.775,0 12.268,5.492 12.268,12.267 0,6.775 -5.493,12.268 -12.268,12.268 z"
         id="path14" />
      <path
         style="fill:#676767"
         inkscape:connector-curvature="0"
         d="M 142.751,108.461 V 64.892 c -2.459,0.729 -5.061,1.127 -7.756,1.127 -2.695,0 -5.297,-0.397 -7.756,-1.127 v 43.7 l -45.983,1.449 -9.622,-22.514 c -1.301,-3.042 -4.102,-5.18 -7.379,-5.63 -3.278,-0.451 -6.551,0.853 -8.624,3.432 l -34.718,43.213 c -3.258,4.055 -2.612,9.983 1.443,13.241 4.056,3.258 9.984,2.611 13.241,-1.443 l 24.885,-30.974 12.297,28.776 c 0.988,2.31 3.306,5.901 7.554,5.901 l 60.164,-1.108 c 5.146,0 9.318,-4.173 9.318,-9.318 v -16.124 c 0,-4.367 -3.009,-8.022 -7.064,-9.032 z"
         id="path16" />
      <path
         style="fill:#676767"
         inkscape:connector-curvature="0"
         d="m 231.021,42.014 c -1.504,-4.922 -6.713,-7.692 -11.634,-6.189 l -21.654,7.119 c -3.691,1.128 -6.172,4.341 -6.548,7.953 -0.06,0.57 5.773,-1.206 11.981,-3.105 L 183.285,59.451 160.823,47.433 c -1.839,5.491 -5.377,10.199 -9.993,13.504 l 28.722,15.365 c 1.227,0.656 2.574,0.983 3.92,0.983 1.454,0 2.908,-0.381 4.204,-1.142 l 27.896,-16.36 -17.116,17.728 9.476,31.445 -14.274,35.648 c -0.583,1.458 -0.793,3.039 -0.61,4.599 l 4.986,42.475 c 0.563,4.793 4.631,8.321 9.342,8.321 0.366,0 0.737,-0.021 1.11,-0.065 5.166,-0.606 8.862,-5.286 8.255,-10.452 l -4.707,-40.097 15.111,-37.74 4.434,-0.321 v 79.256 c 0,5.202 4.217,9.418 9.418,9.418 5.201,0 9.417,-4.216 9.417,-9.418 V 101.2 c 0,-0.983 -0.156,-1.948 -0.451,-2.866 -0.276,-0.857 -18.942,-56.32 -18.942,-56.32 z"
         id="path18" />
    </g>
  </g>
</svg>
