<?xml version="1.0" encoding="UTF-8" standalone="no"?>
<svg
   xmlns:dc="http://purl.org/dc/elements/1.1/"
   xmlns:cc="http://creativecommons.org/ns#"
   xmlns:rdf="http://www.w3.org/1999/02/22-rdf-syntax-ns#"
   xmlns:svg="http://www.w3.org/2000/svg"
   xmlns="http://www.w3.org/2000/svg"
   xmlns:sodipodi="http://sodipodi.sourceforge.net/DTD/sodipodi-0.dtd"
   xmlns:inkscape="http://www.inkscape.org/namespaces/inkscape"
   fill="#000000"
   height="24"
   viewBox="0 0 24 24"
   width="24"
   version="1.1"
   id="svg6764"
   sodipodi:docname="resources.svg"
   inkscape:version="0.92.1 r15371">
  <metadata
     id="metadata6770">
    <rdf:RDF>
      <cc:Work
         rdf:about="">
        <dc:format>image/svg+xml</dc:format>
        <dc:type
           rdf:resource="http://purl.org/dc/dcmitype/StillImage" />
        <dc:title></dc:title>
      </cc:Work>
    </rdf:RDF>
  </metadata>
  <defs
     id="defs6768" />
  <sodipodi:namedview
     pagecolor="#ffffff"
     bordercolor="#666666"
     borderopacity="1"
     objecttolerance="10"
     gridtolerance="10"
     guidetolerance="10"
     inkscape:pageopacity="0"
     inkscape:pageshadow="2"
     inkscape:window-width="1680"
     inkscape:window-height="987"
     id="namedview6766"
     showgrid="false"
     inkscape:zoom="9.8333333"
     inkscape:cx="-4.9322034"
     inkscape:cy="12"
     inkscape:window-x="-8"
     inkscape:window-y="-8"
     inkscape:window-maximized="1"
     inkscape:current-layer="svg6764" />
  <path
     d="M0 0h24v24H0z"
     fill="none"
     id="path6762" />
  <g
     transform="matrix(0.06758475,0,0,0.05673442,-0.81684205,1.4442457)"
     id="g4495"
     style="stroke:#000000;stroke-opacity:1;fill:#5c5c5c;fill-opacity:1">
    <path
       inkscape:connector-curvature="0"
       d="m 339.641,0 h -300 c -5.514,0 -10,4.486 -10,10 v 359.281 c 0,5.514 4.486,10 10,10 h 300 c 5.514,0 10,-4.486 10,-10 V 10 c 0,-5.514 -4.487,-10 -10,-10 z m -10,359.281 h -280 V 96.557 h 280 z"
       id="path4485"
       style="stroke:#000000;stroke-opacity:1;fill:#5c5c5c;fill-opacity:1" />
    <path
       inkscape:connector-curvature="0"
       d="m 89.641,175.641 h 200 c 2.762,0 5,-2.239 5,-5 v -34 c 0,-2.761 -2.238,-5 -5,-5 h -200 c -2.762,0 -5,2.239 -5,5 v 34 c 0,2.761 2.238,5 5,5 z"
       id="path4487"
       style="stroke:#000000;stroke-opacity:1;fill:#5c5c5c;fill-opacity:1" />
    <path
       inkscape:connector-curvature="0"
       d="m 89.641,322.641 h 91 c 2.762,0 5,-2.239 5,-5 v -95 c 0,-2.761 -2.238,-5 -5,-5 h -91 c -2.762,0 -5,2.239 -5,5 v 95 c 0,2.761 2.238,5 5,5 z"
       id="path4489"
       style="stroke:#000000;stroke-opacity:1;fill:#5c5c5c;fill-opacity:1" />
    <path
       inkscape:connector-curvature="0"
       d="m 289.641,217.641 h -70 c -2.762,0 -5,2.239 -5,5 v 29 c 0,2.761 2.238,5 5,5 h 70 c 2.762,0 5,-2.239 5,-5 v -29 c 0,-2.762 -2.239,-5 -5,-5 z"
       id="path4491"
       style="stroke:#000000;stroke-opacity:1;fill:#5c5c5c;fill-opacity:1" />
    <path
       inkscape:connector-curvature="0"
       d="m 289.641,282.324 h -70 c -2.762,0 -5,2.239 -5,5 v 29 c 0,2.761 2.238,5 5,5 h 70 c 2.762,0 5,-2.239 5,-5 v -29 c 0,-2.761 -2.239,-5 -5,-5 z"
       id="path4493"
       style="stroke:#000000;stroke-opacity:1;fill:#5c5c5c;fill-opacity:1" />
  </g>
</svg>
