<?xml version="1.0" encoding="UTF-8" standalone="no"?>
<svg
   xmlns:dc="http://purl.org/dc/elements/1.1/"
   xmlns:cc="http://creativecommons.org/ns#"
   xmlns:rdf="http://www.w3.org/1999/02/22-rdf-syntax-ns#"
   xmlns:svg="http://www.w3.org/2000/svg"
   xmlns="http://www.w3.org/2000/svg"
   xmlns:sodipodi="http://sodipodi.sourceforge.net/DTD/sodipodi-0.dtd"
   xmlns:inkscape="http://www.inkscape.org/namespaces/inkscape"
   fill="#000000"
   height="24"
   viewBox="0 0 24 24"
   width="24"
   id="svg2"
   version="1.1"
   inkscape:version="0.91 r13725"
   sodipodi:docname="sessions_icon.svg">
  <metadata
     id="metadata12">
    <rdf:RDF>
      <cc:Work
         rdf:about="">
        <dc:format>image/svg+xml</dc:format>
        <dc:type
           rdf:resource="http://purl.org/dc/dcmitype/StillImage" />
      </cc:Work>
    </rdf:RDF>
  </metadata>
  <defs
     id="defs10" />
  <sodipodi:namedview
     pagecolor="#ffffff"
     bordercolor="#666666"
     borderopacity="1"
     objecttolerance="10"
     gridtolerance="10"
     guidetolerance="10"
     inkscape:pageopacity="0"
     inkscape:pageshadow="2"
     inkscape:window-width="2519"
     inkscape:window-height="1419"
     id="namedview8"
     showgrid="false"
     inkscape:zoom="32"
     inkscape:cx="-5.3935653"
     inkscape:cy="18.900303"
     inkscape:window-x="41"
     inkscape:window-y="21"
     inkscape:window-maximized="1"
     inkscape:current-layer="svg2" />
  <path
     d="M0 0h24v24H0z"
     fill="none"
     id="path4" />
  <path
     style="opacity:1;fill:#767676;fill-opacity:1"
     d="M 4.6257518,20.938704 C 4.0426529,20.823093 3.4894813,20.393664 3.222073,19.849023 l -0.1494721,-0.304436 0,-7.525423 0,-7.5254241 0.137079,-0.2925073 C 3.401456,3.7920092 3.7922772,3.3952188 4.1799379,3.2161551 4.4720955,3.0812051 4.5547502,3.0680638 5.2590416,3.0445874 l 0.7627118,-0.025424 0.013787,-1.0042373 0.013787,-1.0042373 0.9650268,0 0.9650268,0 0,1.0169491 0,1.0169492 4.0169494,0 4.016949,0 0,-1.0169492 0,-1.0169491 0.991525,0 0.991526,0 0,1.0123856 0,1.0123857 0.775423,0.018193 c 0.722601,0.016953 0.794879,0.027689 1.06102,0.1575922 0.583007,0.284567 1.017336,0.874417 1.116457,1.516231 0.03189,0.2064926 0.04505,2.948052 0.03598,7.4950768 -0.01343,6.733957 -0.0198,7.18326 -0.10475,7.396135 -0.23374,0.585709 -0.644976,1.010102 -1.193346,1.231528 l -0.292479,0.1181 -7.271187,0.0076 c -4.0375222,0.0042 -7.3719203,-0.01232 -7.4976962,-0.03726 z m 14.3875272,-7.444964 0,-5.5169492 -7.016949,0 -7.0169494,0 0,5.5169492 0,5.516949 7.0169494,0 7.016949,0 0,-5.516949 z"
     id="path4140"
     inkscape:connector-curvature="0" />
  <path
     style="opacity:1;fill:#767676;fill-opacity:1"
     d="m 7.0132789,11.002215 0,-0.991526 4.9830511,0 4.983051,0 0,0.991526 0,0.991525 -4.983051,0 -4.9830511,0 0,-0.991525 z"
     id="path4142"
     inkscape:connector-curvature="0" />
  <path
     style="opacity:1;fill:#767676;fill-opacity:1"
     d="m 7.0132789,14.99374 0,-0.966102 3.4830511,0 3.483051,0 0,0.966102 0,0.966102 -3.483051,0 -3.4830511,0 0,-0.966102 z"
     id="path4144"
     inkscape:connector-curvature="0" />
</svg>
