<?xml version="1.0" encoding="UTF-8" standalone="no"?>
<svg
   xmlns:dc="http://purl.org/dc/elements/1.1/"
   xmlns:cc="http://creativecommons.org/ns#"
   xmlns:rdf="http://www.w3.org/1999/02/22-rdf-syntax-ns#"
   xmlns:svg="http://www.w3.org/2000/svg"
   xmlns="http://www.w3.org/2000/svg"
   xmlns:sodipodi="http://sodipodi.sourceforge.net/DTD/sodipodi-0.dtd"
   xmlns:inkscape="http://www.inkscape.org/namespaces/inkscape"
   fill="#000000"
   height="24"
   viewBox="0 0 24 24"
   width="24"
   id="svg2"
   version="1.1"
   inkscape:version="0.91 r13725"
   sodipodi:docname="statistics_icon.svg">
  <metadata
     id="metadata12">
    <rdf:RDF>
      <cc:Work
         rdf:about="">
        <dc:format>image/svg+xml</dc:format>
        <dc:type
           rdf:resource="http://purl.org/dc/dcmitype/StillImage" />
      </cc:Work>
    </rdf:RDF>
  </metadata>
  <defs
     id="defs10" />
  <sodipodi:namedview
     pagecolor="#ffffff"
     bordercolor="#666666"
     borderopacity="1"
     objecttolerance="10"
     gridtolerance="10"
     guidetolerance="10"
     inkscape:pageopacity="0"
     inkscape:pageshadow="2"
     inkscape:window-width="1006"
     inkscape:window-height="1106"
     id="namedview8"
     showgrid="false"
     inkscape:zoom="33.149089"
     inkscape:cx="12"
     inkscape:cy="12"
     inkscape:window-x="36"
     inkscape:window-y="21"
     inkscape:window-maximized="0"
     inkscape:current-layer="svg2" />
  <path
     d="M19 3H5c-1.1 0-2 .9-2 2v14c0 1.1.9 2 2 2h14c1.1 0 2-.9 2-2V5c0-1.1-.9-2-2-2zM9 17H7v-7h2v7zm4 0h-2V7h2v10zm4 0h-2v-4h2v4z"
     id="path4" />
  <path
     d="M0 0h24v24H0z"
     fill="none"
     id="path6" />
  <path
     style="opacity:1;fill:#767676;fill-opacity:1;stroke:#ffffff;stroke-width:0;stroke-linecap:square;stroke-miterlimit:4;stroke-dasharray:none;stroke-dashoffset:0;stroke-opacity:1"
     d="M 4.6423316,20.957724 C 4.5011482,20.927538 4.1444764,20.792439 4.0068381,20.717013 3.7622248,20.582966 3.3623434,20.156295 3.2332677,19.89162 3.0099332,19.433662 3.0269311,20.119162 3.0356526,11.922087 l 0.00784,-7.3702556 0.079122,-0.2033706 C 3.240542,4.0453506 3.3825731,3.825863 3.6042181,3.6042181 3.825863,3.3825731 4.0453506,3.240542 4.3484608,3.1226162 l 0.2033706,-0.079122 7.3702556,-0.00784 c 8.189979,-0.00871 7.513545,-0.025301 7.963675,0.1952783 0.257139,0.1260073 0.6088,0.4388325 0.775308,0.6896872 0.06094,0.091817 0.153707,0.2781891 0.206139,0.41416 l 0.09533,0.2472201 0.0084,7.3154352 c 0.0076,6.620512 0.0038,7.336317 -0.04001,7.535256 -0.156162,0.709702 -0.734819,1.30258 -1.449815,1.485445 -0.228531,0.05845 -0.359784,0.05943 -7.5055,0.05599 -4.0000954,-0.0019 -7.3000509,-0.0093 -7.3332344,-0.0164 z m 4.3590942,-7.44637 0,-3.5144257 -1.0105858,0 -1.0105859,0 0,3.5144257 0,3.514425 1.0105859,0 1.0105858,0 0,-3.514425 z m 4.0121772,-1.508337 0,-5.0227629 -1.010586,0 -1.010586,0 0,5.0227629 0,5.022762 1.010586,0 1.010586,0 0,-5.022762 z m 4.004848,2.994049 0.0078,-2.01363 -1.025883,0 -1.025883,0 0,2.00106 c 0,1.100584 0.0092,2.010291 0.02051,2.021572 0.01128,0.01128 0.469438,0.01694 1.018127,0.01257 l 0.997617,-0.0079 0.0078,-2.01363 z"
     id="path3340"
     inkscape:connector-curvature="0" />
</svg>
