<?xml version="1.0" encoding="UTF-8" standalone="no"?>
<!-- Created with Inkscape (http://www.inkscape.org/) -->

<svg
   xmlns:dc="http://purl.org/dc/elements/1.1/"
   xmlns:cc="http://creativecommons.org/ns#"
   xmlns:rdf="http://www.w3.org/1999/02/22-rdf-syntax-ns#"
   xmlns:svg="http://www.w3.org/2000/svg"
   xmlns="http://www.w3.org/2000/svg"
   xmlns:sodipodi="http://sodipodi.sourceforge.net/DTD/sodipodi-0.dtd"
   xmlns:inkscape="http://www.inkscape.org/namespaces/inkscape"
   width="11.288889mm"
   height="11.288889mm"
   viewBox="0 0 40.000002 39.999998"
   id="svg2"
   version="1.1"
   inkscape:version="0.91 r13725"
   sodipodi:docname="twitter-icon.svg">
  <defs
     id="defs4" />
  <sodipodi:namedview
     id="base"
     pagecolor="#ffffff"
     bordercolor="#666666"
     borderopacity="1.0"
     inkscape:pageopacity="0.0"
     inkscape:pageshadow="2"
     inkscape:zoom="1.979899"
     inkscape:cx="-158.67893"
     inkscape:cy="-48.547337"
     inkscape:document-units="px"
     inkscape:current-layer="layer1"
     showgrid="false"
     fit-margin-top="0"
     fit-margin-left="0"
     fit-margin-right="0"
     fit-margin-bottom="0"
     inkscape:window-width="1920"
     inkscape:window-height="1018"
     inkscape:window-x="1016"
     inkscape:window-y="-8"
     inkscape:window-maximized="1" />
  <metadata
     id="metadata7">
    <rdf:RDF>
      <cc:Work
         rdf:about="">
        <dc:format>image/svg+xml</dc:format>
        <dc:type
           rdf:resource="http://purl.org/dc/dcmitype/StillImage" />
        <dc:title></dc:title>
      </cc:Work>
    </rdf:RDF>
  </metadata>
  <g
     inkscape:label="Capa 1"
     inkscape:groupmode="layer"
     id="layer1"
     transform="translate(-283.42858,-377.50506)">
    <g
       id="g3397"
       transform="matrix(0.83333333,0,0,0.83333333,283.42858,377.50506)">
      <circle
         id="circle3383"
         r="24"
         cy="24"
         cx="24"
         style="fill:#1cb7eb" />
      <g
         id="g3385">
        <g
           id="g3387">
          <path
             id="path3389"
             d="m 36.8,15.4 c -0.9,0.5 -2,0.8 -3,0.9 1.1,-0.7 1.9,-1.8 2.3,-3.1 -1,0.6 -2.1,1.1 -3.4,1.4 -1,-1.1 -2.3,-1.8 -3.8,-1.8 -2.9,0 -5.3,2.5 -5.3,5.7 0,0.4 0,0.9 0.1,1.3 -4.4,-0.2 -8.3,-2.5 -10.9,-5.9 -0.5,0.8 -0.7,1.8 -0.7,2.9 0,2 0.9,3.7 2.3,4.7 -0.9,0 -1.7,-0.3 -2.4,-0.7 0,0 0,0.1 0,0.1 0,2.7 1.8,5 4.2,5.6 -0.4,0.1 -0.9,0.2 -1.4,0.2 -0.3,0 -0.7,0 -1,-0.1 0.7,2.3 2.6,3.9 4.9,3.9 -1.8,1.5 -4.1,2.4 -6.5,2.4 -0.4,0 -0.8,0 -1.3,-0.1 2.3,1.6 5.1,2.6 8.1,2.6 9.7,0 15,-8.6 15,-16.1 0,-0.2 0,-0.5 0,-0.7 1.2,-1 2.1,-2 2.8,-3.2 z"
             inkscape:connector-curvature="0"
             style="fill:#ffffff" />
        </g>
      </g>
    </g>
  </g>
</svg>
