<?xml version="1.0" encoding="UTF-8" standalone="no"?>
<svg
   xmlns:dc="http://purl.org/dc/elements/1.1/"
   xmlns:cc="http://creativecommons.org/ns#"
   xmlns:rdf="http://www.w3.org/1999/02/22-rdf-syntax-ns#"
   xmlns:svg="http://www.w3.org/2000/svg"
   xmlns="http://www.w3.org/2000/svg"
   xmlns:sodipodi="http://sodipodi.sourceforge.net/DTD/sodipodi-0.dtd"
   xmlns:inkscape="http://www.inkscape.org/namespaces/inkscape"
   fill="#000000"
   height="24"
   viewBox="0 0 24 24"
   width="24"
   version="1.1"
   id="svg4489"
   sodipodi:docname="weight.svg"
   inkscape:version="0.92.1 r15371">
  <metadata
     id="metadata4495">
    <rdf:RDF>
      <cc:Work
         rdf:about="">
        <dc:format>image/svg+xml</dc:format>
        <dc:type
           rdf:resource="http://purl.org/dc/dcmitype/StillImage" />
        <dc:title></dc:title>
      </cc:Work>
    </rdf:RDF>
  </metadata>
  <defs
     id="defs4493" />
  <sodipodi:namedview
     pagecolor="#ffffff"
     bordercolor="#666666"
     borderopacity="1"
     objecttolerance="10"
     gridtolerance="10"
     guidetolerance="10"
     inkscape:pageopacity="0"
     inkscape:pageshadow="2"
     inkscape:window-width="1680"
     inkscape:window-height="987"
     id="namedview4491"
     showgrid="false"
     inkscape:zoom="32.833333"
     inkscape:cx="7.7908228"
     inkscape:cy="10.516777"
     inkscape:window-x="-8"
     inkscape:window-y="-8"
     inkscape:window-maximized="1"
     inkscape:current-layer="svg4489" />
  <path
     d="M0 0h24v24H0z"
     fill="none"
     id="path4485" />
  <g
     transform="matrix(0.44318049,0,0,0.44318049,0.61605805,1.1542773)"
     id="g4487"
     style="fill:#5c5c5c;fill-opacity:1">
    <path
       inkscape:connector-curvature="0"
       style="fill:#5c5c5c;fill-opacity:1"
       d="M 47.493,32.104 C 47.318,31.625 47.052,31.196 46.723,30.811 46.146,28.483 45.004,25.813 43.344,23.165 40.686,18.918 33.649,12.075 30.975,11.02 30.842,10.966 30.722,10.936 30.61,10.909 30.519,10.25 30.146,9.638 29.262,9.218 27.883,8.571 26.523,7.939 25.246,7.498 23.712,3.139 19.563,0 14.686,0 8.507,0 3.481,5.023 3.481,11.202 c 0,6.178 5.026,11.204 11.205,11.204 5.085,0 9.384,-3.41 10.747,-8.063 1.017,-0.156 1.894,-0.103 2.388,0.633 1.374,2.044 2.889,8.847 5.405,13.195 -0.636,-0.087 -1.292,-0.135 -1.968,-0.135 -2.904,0 -5.514,0.85 -7.357,2.212 -1.578,-2.462 -4.332,-4.098 -7.474,-4.098 -4.161,0 -7.64,2.865 -8.603,6.729 l -0.382,0.003 0.22,18.348 4.537,-0.078 1.646,-2.916 c 2.86,-1.098 6.242,-3.932 8.591,-6.948 3.184,0.467 7.204,0.733 8.822,0.733 1.752,0 8.379,-0.772 10.272,-1.467 4.412,-1.611 7.085,-5.396 5.963,-8.45 z M 14.686,14.486 c -1.811,0 -3.283,-1.473 -3.283,-3.284 0,-1.81 1.472,-3.281 3.283,-3.281 1.81,0 3.282,1.472 3.282,3.281 0,1.812 -1.473,3.284 -3.282,3.284 z"
       id="path4485-2" />
  </g>
</svg>
